<svg width="125" height="150" viewBox="0 0 125 150" fill="none" xmlns="http://www.w3.org/2000/svg">
<path d="M111.111 15H82.0833C79.1667 6.3 71.5278 0 62.5 0C53.4722 0 45.8333 6.3 42.9167 15H13.8889C6.25 15 0 21.75 0 30V135C0 143.25 6.25 150 13.8889 150H111.111C118.75 150 125 143.25 125 135V30C125 21.75 118.75 15 111.111 15ZM62.5 15C66.3194 15 69.4444 18.375 69.4444 22.5C69.4444 26.625 66.3194 30 62.5 30C58.6806 30 55.5556 26.625 55.5556 22.5C55.5556 18.375 58.6806 15 62.5 15ZM62.5 45C74.0278 45 83.3333 55.05 83.3333 67.5C83.3333 79.95 74.0278 90 62.5 90C50.9722 90 41.6667 79.95 41.6667 67.5C41.6667 55.05 50.9722 45 62.5 45ZM104.167 135H20.8333V124.5C20.8333 109.5 48.6111 101.25 62.5 101.25C76.3889 101.25 104.167 109.5 104.167 124.5V135Z" fill="#BB8135"/>
</svg>
